<svg xmlns="http://www.w3.org/2000/svg" viewBox="0 0 50 50"><defs><style>.cls-1,.cls-3,.cls-4{fill:#fff;}.cls-1,.cls-2,.cls-3,.cls-4{stroke:#4477c1;}.cls-1,.cls-2,.cls-4{stroke-miterlimit:10;}.cls-2{fill:none;}.cls-3,.cls-4{font-size:12.13px;font-family:Shrikhand-Regular, Shrikhand;}</style></defs><title>logo</title><g id="Lag_1" data-name="Lag 1"><path class="cls-1" d="M37.26,36.25c-.49-.07-1-.11-1.49-.14a3.54,3.54,0,0,1-2.44.06l-.08,0a4.3,4.3,0,0,1-.82.08,4,4,0,0,1-1.3-.2,3.93,3.93,0,0,1-1.5.28,3.7,3.7,0,0,1-1.69-.37c-1,.14-2.07.33-3.12.48a38.27,38.27,0,0,1-6.77,0c-.58.12-1.16.24-1.74.39l-.38.06a10.95,10.95,0,0,0,21.7-.6Z"/><line class="cls-2" x1="16.18" y1="36.89" x2="37.37" y2="36.89"/><rect class="cls-2" x="23.26" y="46.09" width="7.04" height="0.64"/></g><g id="Lag_2" data-name="Lag 2"><text class="cls-3" transform="translate(3.61 16.21)">Rost</text><text class="cls-4" transform="translate(13.31 24.07)">My</text><text class="cls-3" transform="translate(15.3 32.64)">Food</text></g></svg>